<?xml version="1.0" encoding="utf-8" standalone="no"?>
<!DOCTYPE svg PUBLIC "-//W3C//DTD SVG 1.1//EN"
  "http://www.w3.org/Graphics/SVG/1.1/DTD/svg11.dtd">
<!-- Created with matplotlib (http://matplotlib.org/) -->
<svg height="432pt" version="1.1" viewBox="0 0 576 432" width="576pt" xmlns="http://www.w3.org/2000/svg" xmlns:xlink="http://www.w3.org/1999/xlink">
 <defs>
  <style type="text/css">
*{stroke-linecap:butt;stroke-linejoin:round;stroke-miterlimit:100000;}
  </style>
 </defs>
 <g id="figure_1">
  <g id="patch_1">
   <path d="M 0 432 
L 576 432 
L 576 0 
L 0 0 
z
" style="fill:#ffffff;"/>
  </g>
  <g id="axes_1">
   <g id="patch_2">
    <path d="M 53.41 384.130625 
L 271.56375 384.130625 
L 271.56375 51.84 
L 53.41 51.84 
z
" style="fill:#ffffff;"/>
   </g>
   <g id="line2d_1">
    <path clip-path="url(#pcdfed54977)" d="M 53.41 355.754204 
L 64.317688 347.36023 
L 75.225375 338.081638 
L 86.133063 328.589339 
L 97.04075 318.096523 
L 107.948437 307.032074 
L 118.856125 295.01458 
L 129.763812 282.127702 
L 140.6715 268.983014 
L 151.579187 255.661404 
L 162.486875 241.188742 
L 173.394563 227.013617 
L 184.30225 212.156257 
L 195.209938 196.515781 
L 206.117625 180.366828 
L 217.025312 164.522121 
L 227.933 148.322888 
L 238.840687 132.238012 
L 249.748375 116.05127 
L 260.656062 99.23399 
L 271.56375 83.433782 
" style="fill:none;opacity:0.85;stroke:#8a6464;stroke-linecap:square;stroke-width:1.5;"/>
   </g>
   <g id="line2d_2">
    <path clip-path="url(#pcdfed54977)" d="M 53.41 360.220681 
L 64.317688 352.460494 
L 75.225375 343.936825 
L 86.133063 334.784979 
L 97.04075 324.709264 
L 107.948437 313.941298 
L 118.856125 302.64585 
L 129.763812 290.697723 
L 140.6715 278.375782 
L 151.579187 265.245879 
L 162.486875 251.673565 
L 173.394563 237.25083 
L 184.30225 222.199346 
L 195.209938 206.54386 
L 206.117625 190.616774 
L 217.025312 174.843747 
L 227.933 158.354757 
L 238.840687 141.240479 
L 249.748375 124.269999 
L 260.656062 107.487413 
L 271.56375 90.84668 
" style="fill:none;opacity:0.85;stroke:#af6464;stroke-linecap:square;stroke-width:1.5;"/>
   </g>
   <g id="line2d_3">
    <path clip-path="url(#pcdfed54977)" d="M 53.41 358.725925 
L 64.317688 350.740848 
L 75.225375 342.030096 
L 86.133063 332.659308 
L 97.04075 322.652901 
L 107.948437 311.818374 
L 118.856125 300.705337 
L 129.763812 288.203193 
L 140.6715 275.17651 
L 151.579187 261.789241 
L 162.486875 247.793232 
L 173.394563 233.344132 
L 184.30225 217.724184 
L 195.209938 202.977015 
L 206.117625 187.475108 
L 217.025312 171.19213 
L 227.933 154.994904 
L 238.840687 138.277031 
L 249.748375 121.562833 
L 260.656062 104.769673 
L 271.56375 88.632018 
" style="fill:none;opacity:0.85;stroke:#647164;stroke-linecap:square;stroke-width:1.5;"/>
   </g>
   <g id="line2d_4">
    <path clip-path="url(#pcdfed54977)" d="M 53.41 359.416079 
L 64.317688 351.748946 
L 75.225375 343.304857 
L 86.133063 334.264841 
L 97.04075 324.20619 
L 107.948437 313.692959 
L 118.856125 302.339707 
L 129.763812 290.343152 
L 140.6715 277.738696 
L 151.579187 264.445666 
L 162.486875 250.200078 
L 173.394563 235.283712 
L 184.30225 220.416378 
L 195.209938 204.7716 
L 206.117625 188.766675 
L 217.025312 172.094518 
L 227.933 155.660366 
L 238.840687 139.021018 
L 249.748375 123.308207 
L 260.656062 106.701075 
L 271.56375 90.519962 
" style="fill:none;opacity:0.85;stroke:#649664;stroke-linecap:square;stroke-width:1.5;"/>
   </g>
   <g id="patch_3">
    <path d="M 53.41 384.130625 
L 53.41 51.84 
" style="fill:none;stroke:#000000;stroke-linecap:square;stroke-linejoin:miter;"/>
   </g>
   <g id="patch_4">
    <path d="M 53.41 384.130625 
L 271.56375 384.130625 
" style="fill:none;stroke:#000000;stroke-linecap:square;stroke-linejoin:miter;"/>
   </g>
   <g id="matplotlib.axis_1">
    <g id="xtick_1">
     <g id="line2d_5">
      <defs>
       <path d="M 0 0 
L 0 4 
" id="mb96ba1059e" style="stroke:#000000;stroke-width:0.5;"/>
      </defs>
      <g>
       <use style="stroke:#000000;stroke-width:0.5;" x="53.41" xlink:href="#mb96ba1059e" y="384.130625"/>
      </g>
     </g>
     <g id="text_1">
      <!-- 60 -->
      <defs>
       <path d="M 29.25 70.21875 
Q 40.96875 70.21875 45.578125 64.140625 
Q 50.203125 58.0625 50.203125 51.609375 
L 41.5 51.609375 
Q 40.71875 55.765625 39.015625 58.109375 
Q 35.84375 62.5 29.390625 62.5 
Q 22.015625 62.5 17.671875 55.6875 
Q 13.328125 48.875 12.84375 36.1875 
Q 15.875 40.625 20.453125 42.828125 
Q 24.65625 44.78125 29.828125 44.78125 
Q 38.625 44.78125 45.15625 39.15625 
Q 51.703125 33.546875 51.703125 22.40625 
Q 51.703125 12.890625 45.5 5.53125 
Q 39.3125 -1.8125 27.828125 -1.8125 
Q 18.015625 -1.8125 10.890625 5.640625 
Q 3.765625 13.09375 3.765625 30.71875 
Q 3.765625 43.75 6.9375 52.828125 
Q 13.03125 70.21875 29.25 70.21875 
z
M 28.609375 6 
Q 35.546875 6 38.984375 10.65625 
Q 42.4375 15.328125 42.4375 21.6875 
Q 42.4375 27.046875 39.359375 31.90625 
Q 36.28125 36.765625 28.171875 36.765625 
Q 22.515625 36.765625 18.234375 33 
Q 13.96875 29.25 13.96875 21.6875 
Q 13.96875 15.046875 17.84375 10.515625 
Q 21.734375 6 28.609375 6 
z
" id="Helvetica-36"/>
       <path d="M 27.046875 69.921875 
Q 40.625 69.921875 46.6875 58.734375 
Q 51.375 50.09375 51.375 35.0625 
Q 51.375 20.796875 47.125 11.46875 
Q 40.96875 -1.90625 27 -1.90625 
Q 14.40625 -1.90625 8.25 9.03125 
Q 3.125 18.171875 3.125 33.546875 
Q 3.125 45.453125 6.203125 54 
Q 11.96875 69.921875 27.046875 69.921875 
z
M 26.953125 6.109375 
Q 33.796875 6.109375 37.84375 12.15625 
Q 41.890625 18.21875 41.890625 34.71875 
Q 41.890625 46.625 38.953125 54.3125 
Q 36.03125 62.015625 27.59375 62.015625 
Q 19.828125 62.015625 16.234375 54.703125 
Q 12.640625 47.40625 12.640625 33.203125 
Q 12.640625 22.515625 14.9375 16.015625 
Q 18.453125 6.109375 26.953125 6.109375 
z
" id="Helvetica-30"/>
      </defs>
      <g transform="translate(46.736875 400.73875)scale(0.12 -0.12)">
       <use xlink:href="#Helvetica-36"/>
       <use x="55.615234375" xlink:href="#Helvetica-30"/>
      </g>
     </g>
    </g>
    <g id="xtick_2">
     <g id="line2d_6">
      <g>
       <use style="stroke:#000000;stroke-width:0.5;" x="107.9484375" xlink:href="#mb96ba1059e" y="384.130625"/>
      </g>
     </g>
     <g id="text_2">
      <!-- 65 -->
      <defs>
       <path d="M 12.359375 17.828125 
Q 13.234375 10.296875 19.34375 7.421875 
Q 22.46875 5.953125 26.5625 5.953125 
Q 34.375 5.953125 38.125 10.9375 
Q 41.890625 15.921875 41.890625 21.96875 
Q 41.890625 29.296875 37.421875 33.296875 
Q 32.953125 37.3125 26.703125 37.3125 
Q 22.171875 37.3125 18.921875 35.546875 
Q 15.671875 33.796875 13.375 30.671875 
L 5.765625 31.109375 
L 11.078125 68.75 
L 47.40625 68.75 
L 47.40625 60.25 
L 17.671875 60.25 
L 14.703125 40.828125 
Q 17.140625 42.671875 19.34375 43.609375 
Q 23.25 45.21875 28.375 45.21875 
Q 37.984375 45.21875 44.671875 39.015625 
Q 51.375 32.8125 51.375 23.296875 
Q 51.375 13.375 45.234375 5.796875 
Q 39.109375 -1.765625 25.6875 -1.765625 
Q 17.140625 -1.765625 10.5625 3.046875 
Q 4 7.859375 3.21875 17.828125 
z
" id="Helvetica-35"/>
      </defs>
      <g transform="translate(101.2753125 400.73875)scale(0.12 -0.12)">
       <use xlink:href="#Helvetica-36"/>
       <use x="55.615234375" xlink:href="#Helvetica-35"/>
      </g>
     </g>
    </g>
    <g id="xtick_3">
     <g id="line2d_7">
      <g>
       <use style="stroke:#000000;stroke-width:0.5;" x="162.486875" xlink:href="#mb96ba1059e" y="384.130625"/>
      </g>
     </g>
     <g id="text_3">
      <!-- 70 -->
      <defs>
       <path d="M 52.296875 68.75 
L 52.296875 61.078125 
Q 48.921875 57.8125 43.328125 49.703125 
Q 37.75 41.609375 33.453125 32.234375 
Q 29.203125 23.09375 27 15.578125 
Q 25.59375 10.75 23.34375 0 
L 13.625 0 
Q 16.9375 20.015625 28.265625 39.84375 
Q 34.96875 51.46875 42.328125 59.90625 
L 3.65625 59.90625 
L 3.65625 68.75 
z
" id="Helvetica-37"/>
      </defs>
      <g transform="translate(155.81375 400.73875)scale(0.12 -0.12)">
       <use xlink:href="#Helvetica-37"/>
       <use x="55.615234375" xlink:href="#Helvetica-30"/>
      </g>
     </g>
    </g>
    <g id="xtick_4">
     <g id="line2d_8">
      <g>
       <use style="stroke:#000000;stroke-width:0.5;" x="217.0253125" xlink:href="#mb96ba1059e" y="384.130625"/>
      </g>
     </g>
     <g id="text_4">
      <!-- 75 -->
      <g transform="translate(210.3521875 400.73875)scale(0.12 -0.12)">
       <use xlink:href="#Helvetica-37"/>
       <use x="55.615234375" xlink:href="#Helvetica-35"/>
      </g>
     </g>
    </g>
    <g id="xtick_5">
     <g id="line2d_9">
      <g>
       <use style="stroke:#000000;stroke-width:0.5;" x="271.56375" xlink:href="#mb96ba1059e" y="384.130625"/>
      </g>
     </g>
     <g id="text_5">
      <!-- 80 -->
      <defs>
       <path d="M 27.203125 40.625 
Q 33.015625 40.625 36.28125 43.875 
Q 39.546875 47.125 39.546875 51.609375 
Q 39.546875 55.515625 36.421875 58.78125 
Q 33.296875 62.0625 26.90625 62.0625 
Q 20.5625 62.0625 17.71875 58.78125 
Q 14.890625 55.515625 14.890625 51.125 
Q 14.890625 46.1875 18.546875 43.40625 
Q 22.21875 40.625 27.203125 40.625 
z
M 27.734375 6 
Q 33.84375 6 37.859375 9.296875 
Q 41.890625 12.59375 41.890625 19.140625 
Q 41.890625 25.921875 37.734375 29.4375 
Q 33.59375 32.953125 27.09375 32.953125 
Q 20.796875 32.953125 16.8125 29.359375 
Q 12.84375 25.78125 12.84375 19.4375 
Q 12.84375 13.96875 16.484375 9.984375 
Q 20.125 6 27.734375 6 
z
M 15.234375 37.25 
Q 11.578125 38.8125 9.515625 40.921875 
Q 5.671875 44.828125 5.671875 51.078125 
Q 5.671875 58.890625 11.328125 64.5 
Q 17 70.125 27.390625 70.125 
Q 37.453125 70.125 43.15625 64.8125 
Q 48.875 59.515625 48.875 52.4375 
Q 48.875 45.90625 45.5625 41.84375 
Q 43.703125 39.546875 39.796875 37.359375 
Q 44.140625 35.359375 46.625 32.765625 
Q 51.265625 27.875 51.265625 20.0625 
Q 51.265625 10.84375 45.0625 4.421875 
Q 38.875 -2 27.546875 -2 
Q 17.328125 -2 10.265625 3.53125 
Q 3.21875 9.078125 3.21875 19.625 
Q 3.21875 25.828125 6.25 30.34375 
Q 9.28125 34.859375 15.234375 37.25 
z
" id="Helvetica-38"/>
      </defs>
      <g transform="translate(264.890625 400.73875)scale(0.12 -0.12)">
       <use xlink:href="#Helvetica-38"/>
       <use x="55.615234375" xlink:href="#Helvetica-30"/>
      </g>
     </g>
    </g>
    <g id="text_6">
     <!-- Age -->
     <defs>
      <path d="M 28.21875 53.46875 
Q 33.796875 53.46875 39.015625 50.859375 
Q 44.234375 48.25 46.96875 44.09375 
Q 49.609375 40.140625 50.484375 34.859375 
Q 51.265625 31.25 51.265625 23.34375 
L 12.9375 23.34375 
Q 13.1875 15.375 16.703125 10.5625 
Q 20.21875 5.765625 27.59375 5.765625 
Q 34.46875 5.765625 38.578125 10.296875 
Q 40.921875 12.9375 41.890625 16.40625 
L 50.53125 16.40625 
Q 50.203125 13.53125 48.265625 9.984375 
Q 46.34375 6.453125 43.953125 4.203125 
Q 39.9375 0.296875 34.03125 -1.078125 
Q 30.859375 -1.859375 26.859375 -1.859375 
Q 17.09375 -1.859375 10.296875 5.25 
Q 3.515625 12.359375 3.515625 25.140625 
Q 3.515625 37.75 10.34375 45.609375 
Q 17.1875 53.46875 28.21875 53.46875 
z
M 42.234375 30.328125 
Q 41.703125 36.03125 39.75 39.453125 
Q 36.140625 45.796875 27.6875 45.796875 
Q 21.625 45.796875 17.515625 41.421875 
Q 13.421875 37.0625 13.1875 30.328125 
z
M 27.390625 53.5625 
z
" id="Helvetica-65"/>
      <path d="M 44.4375 29.390625 
L 33.546875 61.078125 
L 21.96875 29.390625 
z
M 28.46875 71.734375 
L 39.453125 71.734375 
L 65.484375 0 
L 54.828125 0 
L 47.5625 21.484375 
L 19.1875 21.484375 
L 11.421875 0 
L 1.46875 0 
z
M 33.5 71.734375 
z
" id="Helvetica-41"/>
      <path d="M 24.90625 53.21875 
Q 31.0625 53.21875 35.640625 50.203125 
Q 38.140625 48.484375 40.71875 45.21875 
L 40.71875 51.8125 
L 48.828125 51.8125 
L 48.828125 4.25 
Q 48.828125 -5.71875 45.90625 -11.46875 
Q 40.4375 -22.125 25.25 -22.125 
Q 16.796875 -22.125 11.03125 -18.328125 
Q 5.28125 -14.546875 4.59375 -6.5 
L 13.53125 -6.5 
Q 14.15625 -10.015625 16.0625 -11.921875 
Q 19.046875 -14.84375 25.4375 -14.84375 
Q 35.546875 -14.84375 38.671875 -7.71875 
Q 40.53125 -3.515625 40.375 7.28125 
Q 37.75 3.265625 34.03125 1.3125 
Q 30.328125 -0.640625 24.21875 -0.640625 
Q 15.71875 -0.640625 9.34375 5.390625 
Q 2.984375 11.421875 2.984375 25.34375 
Q 2.984375 38.484375 9.40625 45.84375 
Q 15.828125 53.21875 24.90625 53.21875 
z
M 40.71875 26.375 
Q 40.71875 36.078125 36.71875 40.765625 
Q 32.71875 45.453125 26.515625 45.453125 
Q 17.234375 45.453125 13.8125 36.765625 
Q 12.015625 32.125 12.015625 24.609375 
Q 12.015625 15.765625 15.59375 11.15625 
Q 19.1875 6.546875 25.25 6.546875 
Q 34.71875 6.546875 38.578125 15.09375 
Q 40.71875 19.921875 40.71875 26.375 
z
M 25.921875 53.5625 
z
" id="Helvetica-67"/>
     </defs>
     <g transform="translate(151.8115625 416.848125)scale(0.12 -0.12)">
      <use xlink:href="#Helvetica-41"/>
      <use x="66.69921875" xlink:href="#Helvetica-67"/>
      <use x="122.314453125" xlink:href="#Helvetica-65"/>
     </g>
    </g>
   </g>
   <g id="matplotlib.axis_2">
    <g id="ytick_1">
     <g id="line2d_10">
      <defs>
       <path d="M 0 0 
L -4 0 
" id="md3b454de25" style="stroke:#000000;stroke-width:0.5;"/>
      </defs>
      <g>
       <use style="stroke:#000000;stroke-width:0.5;" x="53.41" xlink:href="#md3b454de25" y="384.130625"/>
      </g>
     </g>
     <g id="text_7">
      <!-- 0.1 -->
      <defs>
       <path d="M 9.578125 49.515625 
L 9.578125 56.25 
Q 19.09375 57.171875 22.84375 59.34375 
Q 26.609375 61.53125 28.46875 69.625 
L 35.40625 69.625 
L 35.40625 0 
L 26.03125 0 
L 26.03125 49.515625 
z
" id="Helvetica-31"/>
       <path d="M 8.546875 10.640625 
L 18.75 10.640625 
L 18.75 0 
L 8.546875 0 
z
" id="Helvetica-2e"/>
      </defs>
      <g transform="translate(28.73 387.1840625)scale(0.12 -0.12)">
       <use xlink:href="#Helvetica-30"/>
       <use x="55.615234375" xlink:href="#Helvetica-2e"/>
       <use x="83.3984375" xlink:href="#Helvetica-31"/>
      </g>
     </g>
    </g>
    <g id="ytick_2">
     <g id="line2d_11">
      <g>
       <use style="stroke:#000000;stroke-width:0.5;" x="53.41" xlink:href="#md3b454de25" y="328.748854167"/>
      </g>
     </g>
     <g id="text_8">
      <!-- 0.2 -->
      <defs>
       <path d="M 3.125 0 
Q 3.609375 9.03125 6.859375 15.71875 
Q 10.109375 22.40625 19.53125 27.875 
L 28.90625 33.296875 
Q 35.203125 36.96875 37.75 39.546875 
Q 41.75 43.609375 41.75 48.828125 
Q 41.75 54.9375 38.078125 58.515625 
Q 34.421875 62.109375 28.328125 62.109375 
Q 19.28125 62.109375 15.828125 55.28125 
Q 13.96875 51.609375 13.765625 45.125 
L 4.828125 45.125 
Q 4.984375 54.25 8.203125 60.015625 
Q 13.921875 70.171875 28.375 70.171875 
Q 40.375 70.171875 45.921875 63.671875 
Q 51.46875 57.171875 51.46875 49.21875 
Q 51.46875 40.828125 45.5625 34.859375 
Q 42.140625 31.390625 33.296875 26.46875 
L 26.609375 22.75 
Q 21.828125 20.125 19.09375 17.71875 
Q 14.203125 13.484375 12.9375 8.296875 
L 51.125 8.296875 
L 51.125 0 
L 3.125 0 
z
" id="Helvetica-32"/>
      </defs>
      <g transform="translate(28.73 331.802291667)scale(0.12 -0.12)">
       <use xlink:href="#Helvetica-30"/>
       <use x="55.615234375" xlink:href="#Helvetica-2e"/>
       <use x="83.3984375" xlink:href="#Helvetica-32"/>
      </g>
     </g>
    </g>
    <g id="ytick_3">
     <g id="line2d_12">
      <g>
       <use style="stroke:#000000;stroke-width:0.5;" x="53.41" xlink:href="#md3b454de25" y="273.367083333"/>
      </g>
     </g>
     <g id="text_9">
      <!-- 0.3 -->
      <defs>
       <path d="M 25.984375 -1.90625 
Q 13.578125 -1.90625 7.984375 4.90625 
Q 2.390625 11.71875 2.390625 21.484375 
L 11.578125 21.484375 
Q 12.15625 14.703125 14.109375 11.625 
Q 17.53125 6.109375 26.46875 6.109375 
Q 33.40625 6.109375 37.59375 9.8125 
Q 41.796875 13.53125 41.796875 19.390625 
Q 41.796875 26.609375 37.375 29.484375 
Q 32.953125 32.375 25.09375 32.375 
Q 24.21875 32.375 23.3125 32.34375 
Q 22.40625 32.328125 21.484375 32.28125 
L 21.484375 40.046875 
Q 22.859375 39.890625 23.78125 39.84375 
Q 24.703125 39.796875 25.78125 39.796875 
Q 30.71875 39.796875 33.890625 41.359375 
Q 39.453125 44.09375 39.453125 51.125 
Q 39.453125 56.34375 35.734375 59.171875 
Q 32.03125 62.015625 27.09375 62.015625 
Q 18.3125 62.015625 14.9375 56.15625 
Q 13.09375 52.9375 12.84375 46.96875 
L 4.15625 46.96875 
Q 4.15625 54.78125 7.28125 60.25 
Q 12.640625 70.015625 26.171875 70.015625 
Q 36.859375 70.015625 42.71875 65.25 
Q 48.578125 60.5 48.578125 51.46875 
Q 48.578125 45.015625 45.125 41.015625 
Q 42.96875 38.53125 39.546875 37.109375 
Q 45.0625 35.59375 48.15625 31.265625 
Q 51.265625 26.953125 51.265625 20.703125 
Q 51.265625 10.6875 44.671875 4.390625 
Q 38.09375 -1.90625 25.984375 -1.90625 
z
" id="Helvetica-33"/>
      </defs>
      <g transform="translate(28.73 276.420520833)scale(0.12 -0.12)">
       <use xlink:href="#Helvetica-30"/>
       <use x="55.615234375" xlink:href="#Helvetica-2e"/>
       <use x="83.3984375" xlink:href="#Helvetica-33"/>
      </g>
     </g>
    </g>
    <g id="ytick_4">
     <g id="line2d_13">
      <g>
       <use style="stroke:#000000;stroke-width:0.5;" x="53.41" xlink:href="#md3b454de25" y="217.9853125"/>
      </g>
     </g>
     <g id="text_10">
      <!-- 0.4 -->
      <defs>
       <path d="M 33.0625 24.75 
L 33.0625 56.453125 
L 10.640625 24.75 
z
M 33.203125 0 
L 33.203125 17.09375 
L 2.546875 17.09375 
L 2.546875 25.6875 
L 34.578125 70.125 
L 42 70.125 
L 42 24.75 
L 52.296875 24.75 
L 52.296875 17.09375 
L 42 17.09375 
L 42 0 
z
" id="Helvetica-34"/>
      </defs>
      <g transform="translate(28.73 221.03875)scale(0.12 -0.12)">
       <use xlink:href="#Helvetica-30"/>
       <use x="55.615234375" xlink:href="#Helvetica-2e"/>
       <use x="83.3984375" xlink:href="#Helvetica-34"/>
      </g>
     </g>
    </g>
    <g id="ytick_5">
     <g id="line2d_14">
      <g>
       <use style="stroke:#000000;stroke-width:0.5;" x="53.41" xlink:href="#md3b454de25" y="162.603541667"/>
      </g>
     </g>
     <g id="text_11">
      <!-- 0.5 -->
      <g transform="translate(28.73 165.656979167)scale(0.12 -0.12)">
       <use xlink:href="#Helvetica-30"/>
       <use x="55.615234375" xlink:href="#Helvetica-2e"/>
       <use x="83.3984375" xlink:href="#Helvetica-35"/>
      </g>
     </g>
    </g>
    <g id="ytick_6">
     <g id="line2d_15">
      <g>
       <use style="stroke:#000000;stroke-width:0.5;" x="53.41" xlink:href="#md3b454de25" y="107.221770833"/>
      </g>
     </g>
     <g id="text_12">
      <!-- 0.6 -->
      <g transform="translate(28.73 110.275208333)scale(0.12 -0.12)">
       <use xlink:href="#Helvetica-30"/>
       <use x="55.615234375" xlink:href="#Helvetica-2e"/>
       <use x="83.3984375" xlink:href="#Helvetica-36"/>
      </g>
     </g>
    </g>
    <g id="ytick_7">
     <g id="line2d_16">
      <g>
       <use style="stroke:#000000;stroke-width:0.5;" x="53.41" xlink:href="#md3b454de25" y="51.84"/>
      </g>
     </g>
     <g id="text_13">
      <!-- 0.7 -->
      <g transform="translate(28.73 54.8934375)scale(0.12 -0.12)">
       <use xlink:href="#Helvetica-30"/>
       <use x="55.615234375" xlink:href="#Helvetica-2e"/>
       <use x="83.3984375" xlink:href="#Helvetica-37"/>
      </g>
     </g>
    </g>
    <g id="text_14">
     <!-- All other causes -->
     <defs>
      <path d="M 13.1875 13.921875 
Q 13.1875 10.109375 15.96875 7.90625 
Q 18.75 5.71875 22.5625 5.71875 
Q 27.203125 5.71875 31.546875 7.859375 
Q 38.875 11.421875 38.875 19.53125 
L 38.875 26.609375 
Q 37.25 25.59375 34.703125 24.90625 
Q 32.171875 24.21875 29.734375 23.921875 
L 24.421875 23.25 
Q 19.625 22.609375 17.234375 21.234375 
Q 13.1875 18.953125 13.1875 13.921875 
z
M 34.46875 31.6875 
Q 37.5 32.078125 38.53125 34.234375 
Q 39.109375 35.40625 39.109375 37.59375 
Q 39.109375 42.09375 35.90625 44.109375 
Q 32.71875 46.140625 26.765625 46.140625 
Q 19.875 46.140625 17 42.4375 
Q 15.375 40.375 14.890625 36.328125 
L 6.6875 36.328125 
Q 6.9375 46 12.96875 49.78125 
Q 19 53.5625 26.953125 53.5625 
Q 36.1875 53.5625 41.9375 50.046875 
Q 47.65625 46.53125 47.65625 39.109375 
L 47.65625 8.984375 
Q 47.65625 7.625 48.21875 6.78125 
Q 48.78125 5.953125 50.59375 5.953125 
Q 51.171875 5.953125 51.90625 6.03125 
Q 52.640625 6.109375 53.46875 6.25 
L 53.46875 -0.25 
Q 51.421875 -0.828125 50.34375 -0.96875 
Q 49.265625 -1.125 47.40625 -1.125 
Q 42.875 -1.125 40.828125 2.09375 
Q 39.75 3.8125 39.3125 6.9375 
Q 36.625 3.421875 31.59375 0.828125 
Q 26.5625 -1.765625 20.515625 -1.765625 
Q 13.234375 -1.765625 8.609375 2.65625 
Q 4 7.078125 4 13.71875 
Q 4 21 8.546875 25 
Q 13.09375 29 20.453125 29.9375 
z
M 27.203125 53.5625 
z
" id="Helvetica-61"/>
      <path d="M 6.453125 71.96875 
L 15.234375 71.96875 
L 15.234375 45.21875 
Q 18.359375 49.171875 20.84375 50.78125 
Q 25.09375 53.5625 31.453125 53.5625 
Q 42.828125 53.5625 46.875 45.609375 
Q 49.078125 41.265625 49.078125 33.546875 
L 49.078125 0 
L 40.046875 0 
L 40.046875 32.953125 
Q 40.046875 38.71875 38.578125 41.40625 
Q 36.1875 45.703125 29.59375 45.703125 
Q 24.125 45.703125 19.671875 41.9375 
Q 15.234375 38.1875 15.234375 27.734375 
L 15.234375 0 
L 6.453125 0 
z
" id="Helvetica-68"/>
      <path d="M 8.203125 66.890625 
L 17.09375 66.890625 
L 17.09375 52.296875 
L 25.4375 52.296875 
L 25.4375 45.125 
L 17.09375 45.125 
L 17.09375 10.984375 
Q 17.09375 8.25 18.953125 7.328125 
Q 19.96875 6.78125 22.359375 6.78125 
Q 23 6.78125 23.734375 6.8125 
Q 24.46875 6.84375 25.4375 6.9375 
L 25.4375 0 
Q 23.921875 -0.4375 22.28125 -0.625 
Q 20.65625 -0.828125 18.75 -0.828125 
Q 12.59375 -0.828125 10.390625 2.3125 
Q 8.203125 5.46875 8.203125 10.5 
L 8.203125 45.125 
L 1.125 45.125 
L 1.125 52.296875 
L 8.203125 52.296875 
z
" id="Helvetica-74"/>
      <path d="M 26.609375 53.8125 
Q 35.453125 53.8125 40.984375 49.515625 
Q 46.53125 45.21875 47.65625 34.71875 
L 39.109375 34.71875 
Q 38.328125 39.546875 35.546875 42.75 
Q 32.765625 45.953125 26.609375 45.953125 
Q 18.21875 45.953125 14.59375 37.75 
Q 12.25 32.421875 12.25 24.609375 
Q 12.25 16.75 15.5625 11.375 
Q 18.890625 6 26.03125 6 
Q 31.5 6 34.6875 9.34375 
Q 37.890625 12.703125 39.109375 18.5 
L 47.65625 18.5 
Q 46.1875 8.109375 40.328125 3.296875 
Q 34.46875 -1.515625 25.34375 -1.515625 
Q 15.09375 -1.515625 8.984375 5.984375 
Q 2.875 13.484375 2.875 24.703125 
Q 2.875 38.484375 9.5625 46.140625 
Q 16.265625 53.8125 26.609375 53.8125 
z
M 25.25 53.5625 
z
" id="Helvetica-63"/>
      <path d="M 27.203125 5.671875 
Q 35.9375 5.671875 39.1875 12.28125 
Q 42.4375 18.890625 42.4375 27 
Q 42.4375 34.328125 40.09375 38.921875 
Q 36.375 46.140625 27.296875 46.140625 
Q 19.234375 46.140625 15.578125 39.984375 
Q 11.921875 33.84375 11.921875 25.140625 
Q 11.921875 16.796875 15.578125 11.234375 
Q 19.234375 5.671875 27.203125 5.671875 
z
M 27.546875 53.8125 
Q 37.640625 53.8125 44.625 47.0625 
Q 51.609375 40.328125 51.609375 27.25 
Q 51.609375 14.59375 45.453125 6.34375 
Q 39.3125 -1.90625 26.375 -1.90625 
Q 15.578125 -1.90625 9.21875 5.390625 
Q 2.875 12.703125 2.875 25 
Q 2.875 38.1875 9.5625 46 
Q 16.265625 53.8125 27.546875 53.8125 
z
M 27.25 53.5625 
z
" id="Helvetica-6f"/>
      <path d="M 15.234375 52.296875 
L 15.234375 17.578125 
Q 15.234375 13.578125 16.5 11.03125 
Q 18.84375 6.34375 25.25 6.34375 
Q 34.421875 6.34375 37.75 14.546875 
Q 39.546875 18.953125 39.546875 26.609375 
L 39.546875 52.296875 
L 48.34375 52.296875 
L 48.34375 0 
L 40.046875 0 
L 40.140625 7.71875 
Q 38.421875 4.734375 35.890625 2.6875 
Q 30.859375 -1.421875 23.6875 -1.421875 
Q 12.5 -1.421875 8.453125 6.0625 
Q 6.25 10.0625 6.25 16.75 
L 6.25 52.296875 
z
M 27.296875 53.5625 
z
" id="Helvetica-75"/>
      <path d="M 6.6875 71.734375 
L 15.484375 71.734375 
L 15.484375 0 
L 6.6875 0 
z
" id="Helvetica-6c"/>
      <path id="Helvetica-20"/>
      <path d="M 11.671875 16.40625 
Q 12.0625 12.015625 13.875 9.671875 
Q 17.1875 5.421875 25.390625 5.421875 
Q 30.28125 5.421875 33.984375 7.546875 
Q 37.703125 9.671875 37.703125 14.109375 
Q 37.703125 17.484375 34.71875 19.234375 
Q 32.8125 20.3125 27.203125 21.734375 
L 20.21875 23.484375 
Q 13.53125 25.140625 10.359375 27.203125 
Q 4.6875 30.765625 4.6875 37.0625 
Q 4.6875 44.484375 10.03125 49.0625 
Q 15.375 53.65625 24.421875 53.65625 
Q 36.234375 53.65625 41.453125 46.734375 
Q 44.734375 42.328125 44.625 37.25 
L 36.328125 37.25 
Q 36.078125 40.234375 34.234375 42.671875 
Q 31.203125 46.140625 23.734375 46.140625 
Q 18.75 46.140625 16.1875 44.234375 
Q 13.625 42.328125 13.625 39.203125 
Q 13.625 35.796875 17 33.734375 
Q 18.953125 32.515625 22.75 31.59375 
L 28.5625 30.171875 
Q 38.03125 27.875 41.265625 25.734375 
Q 46.390625 22.359375 46.390625 15.140625 
Q 46.390625 8.15625 41.09375 3.078125 
Q 35.796875 -2 24.953125 -2 
Q 13.28125 -2 8.421875 3.296875 
Q 3.5625 8.59375 3.21875 16.40625 
z
M 24.65625 53.5625 
z
" id="Helvetica-73"/>
      <path d="M 6.6875 52.296875 
L 15.046875 52.296875 
L 15.046875 43.265625 
Q 16.0625 45.90625 20.0625 49.6875 
Q 24.078125 53.46875 29.296875 53.46875 
Q 29.546875 53.46875 30.125 53.421875 
Q 30.71875 53.375 32.125 53.21875 
L 32.125 43.953125 
Q 31.34375 44.09375 30.6875 44.140625 
Q 30.03125 44.1875 29.25 44.1875 
Q 22.609375 44.1875 19.046875 39.90625 
Q 15.484375 35.640625 15.484375 30.078125 
L 15.484375 0 
L 6.6875 0 
z
" id="Helvetica-72"/>
     </defs>
     <g transform="translate(21.22875 260.6715625)rotate(-90.0)scale(0.12 -0.12)">
      <use xlink:href="#Helvetica-41"/>
      <use x="66.69921875" xlink:href="#Helvetica-6c"/>
      <use x="88.916015625" xlink:href="#Helvetica-6c"/>
      <use x="111.1328125" xlink:href="#Helvetica-20"/>
      <use x="138.916015625" xlink:href="#Helvetica-6f"/>
      <use x="194.53125" xlink:href="#Helvetica-74"/>
      <use x="222.314453125" xlink:href="#Helvetica-68"/>
      <use x="277.9296875" xlink:href="#Helvetica-65"/>
      <use x="333.544921875" xlink:href="#Helvetica-72"/>
      <use x="366.845703125" xlink:href="#Helvetica-20"/>
      <use x="394.62890625" xlink:href="#Helvetica-63"/>
      <use x="444.62890625" xlink:href="#Helvetica-61"/>
      <use x="500.244140625" xlink:href="#Helvetica-75"/>
      <use x="555.859375" xlink:href="#Helvetica-73"/>
      <use x="605.859375" xlink:href="#Helvetica-65"/>
      <use x="661.474609375" xlink:href="#Helvetica-73"/>
     </g>
    </g>
   </g>
   <g id="legend_1">
    <g id="line2d_17">
     <path d="M 70.69 70.08975 
L 90.85 70.08975 
" style="fill:none;opacity:0.85;stroke:#8a6464;stroke-linecap:square;stroke-width:1.5;"/>
    </g>
    <g id="line2d_18"/>
    <g id="text_15">
     <!-- Natural course -->
     <defs>
      <path d="M 7.625 71.734375 
L 19.09375 71.734375 
L 55.328125 13.625 
L 55.328125 71.734375 
L 64.546875 71.734375 
L 64.546875 0 
L 53.65625 0 
L 16.890625 58.0625 
L 16.890625 0 
L 7.625 0 
z
M 35.453125 71.734375 
z
" id="Helvetica-4e"/>
     </defs>
     <g transform="translate(106.69 75.12975)scale(0.144 -0.144)">
      <use xlink:href="#Helvetica-4e"/>
      <use x="72.216796875" xlink:href="#Helvetica-61"/>
      <use x="127.83203125" xlink:href="#Helvetica-74"/>
      <use x="155.615234375" xlink:href="#Helvetica-75"/>
      <use x="211.23046875" xlink:href="#Helvetica-72"/>
      <use x="244.53125" xlink:href="#Helvetica-61"/>
      <use x="300.146484375" xlink:href="#Helvetica-6c"/>
      <use x="322.36328125" xlink:href="#Helvetica-20"/>
      <use x="350.146484375" xlink:href="#Helvetica-63"/>
      <use x="400.146484375" xlink:href="#Helvetica-6f"/>
      <use x="455.76171875" xlink:href="#Helvetica-75"/>
      <use x="511.376953125" xlink:href="#Helvetica-72"/>
      <use x="544.677734375" xlink:href="#Helvetica-73"/>
      <use x="594.677734375" xlink:href="#Helvetica-65"/>
     </g>
    </g>
    <g id="line2d_19">
     <path d="M 70.69 90.65475 
L 90.85 90.65475 
" style="fill:none;opacity:0.85;stroke:#af6464;stroke-linecap:square;stroke-width:1.5;"/>
    </g>
    <g id="line2d_20"/>
    <g id="text_16">
     <!-- Never exposed -->
     <defs>
      <path d="M 28.515625 5.90625 
Q 34.671875 5.90625 38.75 11.0625 
Q 42.828125 16.21875 42.828125 26.46875 
Q 42.828125 32.71875 41.015625 37.203125 
Q 37.59375 45.84375 28.515625 45.84375 
Q 19.390625 45.84375 16.015625 36.71875 
Q 14.203125 31.84375 14.203125 24.3125 
Q 14.203125 18.265625 16.015625 14.015625 
Q 19.4375 5.90625 28.515625 5.90625 
z
M 5.765625 52.046875 
L 14.3125 52.046875 
L 14.3125 45.125 
Q 16.9375 48.6875 20.0625 50.640625 
Q 24.515625 53.5625 30.515625 53.5625 
Q 39.40625 53.5625 45.609375 46.75 
Q 51.8125 39.9375 51.8125 27.296875 
Q 51.8125 10.203125 42.875 2.875 
Q 37.203125 -1.765625 29.6875 -1.765625 
Q 23.78125 -1.765625 19.78125 0.828125 
Q 17.4375 2.296875 14.546875 5.859375 
L 14.546875 -20.84375 
L 5.765625 -20.84375 
z
" id="Helvetica-70"/>
      <path d="M 1.46875 52.296875 
L 12.84375 52.296875 
L 24.859375 33.890625 
L 37.015625 52.296875 
L 47.703125 52.046875 
L 30.078125 26.8125 
L 48.484375 0 
L 37.25 0 
L 24.265625 19.625 
L 11.671875 0 
L 0.53125 0 
L 18.953125 26.8125 
z
" id="Helvetica-78"/>
      <path d="M 12.015625 25.53125 
Q 12.015625 17.140625 15.578125 11.46875 
Q 19.140625 5.8125 27 5.8125 
Q 33.109375 5.8125 37.03125 11.0625 
Q 40.96875 16.3125 40.96875 26.125 
Q 40.96875 36.03125 36.90625 40.796875 
Q 32.859375 45.5625 26.90625 45.5625 
Q 20.265625 45.5625 16.140625 40.484375 
Q 12.015625 35.40625 12.015625 25.53125 
z
M 25.25 53.21875 
Q 31.25 53.21875 35.296875 50.6875 
Q 37.640625 49.21875 40.625 45.5625 
L 40.625 71.96875 
L 49.078125 71.96875 
L 49.078125 0 
L 41.15625 0 
L 41.15625 7.28125 
Q 38.09375 2.4375 33.890625 0.28125 
Q 29.6875 -1.859375 24.265625 -1.859375 
Q 15.53125 -1.859375 9.125 5.484375 
Q 2.734375 12.84375 2.734375 25.046875 
Q 2.734375 36.46875 8.5625 44.84375 
Q 14.40625 53.21875 25.25 53.21875 
z
" id="Helvetica-64"/>
      <path d="M 10.75 52.296875 
L 24.703125 9.71875 
L 39.3125 52.296875 
L 48.921875 52.296875 
L 29.203125 0 
L 19.828125 0 
L 0.53125 52.296875 
z
" id="Helvetica-76"/>
     </defs>
     <g transform="translate(106.69 95.69475)scale(0.144 -0.144)">
      <use xlink:href="#Helvetica-4e"/>
      <use x="72.216796875" xlink:href="#Helvetica-65"/>
      <use x="127.83203125" xlink:href="#Helvetica-76"/>
      <use x="177.83203125" xlink:href="#Helvetica-65"/>
      <use x="233.447265625" xlink:href="#Helvetica-72"/>
      <use x="266.748046875" xlink:href="#Helvetica-20"/>
      <use x="294.53125" xlink:href="#Helvetica-65"/>
      <use x="350.146484375" xlink:href="#Helvetica-78"/>
      <use x="400.146484375" xlink:href="#Helvetica-70"/>
      <use x="455.76171875" xlink:href="#Helvetica-6f"/>
      <use x="511.376953125" xlink:href="#Helvetica-73"/>
      <use x="561.376953125" xlink:href="#Helvetica-65"/>
      <use x="616.9921875" xlink:href="#Helvetica-64"/>
     </g>
    </g>
    <g id="line2d_21">
     <path d="M 70.69 111.186 
L 90.85 111.186 
" style="fill:none;opacity:0.85;stroke:#647164;stroke-linecap:square;stroke-width:1.5;"/>
    </g>
    <g id="line2d_22"/>
    <g id="text_17">
     <!-- &lt; 100 ug/m^3 -->
     <defs>
      <path d="M 1.375 29.59375 
L 58.453125 51.953125 
L 58.453125 43.171875 
L 11.765625 25.53125 
L 58.453125 7.859375 
L 58.453125 -0.921875 
L 1.375 21.484375 
z
" id="Helvetica-3c"/>
      <path d="M 30.515625 71.734375 
L 47.75 29.59375 
L 39.796875 29.59375 
L 26.8125 61.921875 
L 13.875 29.59375 
L 5.859375 29.59375 
L 23 71.734375 
z
" id="Helvetica-5e"/>
      <path d="M 6.453125 52.296875 
L 15.140625 52.296875 
L 15.140625 44.875 
Q 18.265625 48.734375 20.796875 50.484375 
Q 25.140625 53.46875 30.671875 53.46875 
Q 36.921875 53.46875 40.71875 50.390625 
Q 42.875 48.640625 44.625 45.21875 
Q 47.5625 49.421875 51.515625 51.4375 
Q 55.46875 53.46875 60.40625 53.46875 
Q 70.953125 53.46875 74.75 45.84375 
Q 76.8125 41.75 76.8125 34.8125 
L 76.8125 0 
L 67.671875 0 
L 67.671875 36.328125 
Q 67.671875 41.546875 65.0625 43.5 
Q 62.453125 45.453125 58.6875 45.453125 
Q 53.515625 45.453125 49.78125 41.984375 
Q 46.046875 38.53125 46.046875 30.421875 
L 46.046875 0 
L 37.109375 0 
L 37.109375 34.125 
Q 37.109375 39.453125 35.84375 41.890625 
Q 33.84375 45.5625 28.375 45.5625 
Q 23.390625 45.5625 19.3125 41.703125 
Q 15.234375 37.84375 15.234375 27.734375 
L 15.234375 0 
L 6.453125 0 
z
" id="Helvetica-6d"/>
      <path d="M 22.75 71.734375 
L 30.171875 71.734375 
L 7.421875 0 
L 0 0 
z
" id="Helvetica-2f"/>
     </defs>
     <g transform="translate(106.69 116.226)scale(0.144 -0.144)">
      <use xlink:href="#Helvetica-3c"/>
      <use x="58.3984375" xlink:href="#Helvetica-20"/>
      <use x="86.181640625" xlink:href="#Helvetica-31"/>
      <use x="141.796875" xlink:href="#Helvetica-30"/>
      <use x="197.412109375" xlink:href="#Helvetica-30"/>
      <use x="253.02734375" xlink:href="#Helvetica-20"/>
      <use x="280.810546875" xlink:href="#Helvetica-75"/>
      <use x="336.42578125" xlink:href="#Helvetica-67"/>
      <use x="392.041015625" xlink:href="#Helvetica-2f"/>
      <use x="419.82421875" xlink:href="#Helvetica-6d"/>
      <use x="503.125" xlink:href="#Helvetica-5e"/>
      <use x="550.048828125" xlink:href="#Helvetica-33"/>
     </g>
    </g>
    <g id="line2d_23">
     <path d="M 70.69 131.90175 
L 90.85 131.90175 
" style="fill:none;opacity:0.85;stroke:#649664;stroke-linecap:square;stroke-width:1.5;"/>
    </g>
    <g id="line2d_24"/>
    <g id="text_18">
     <!-- &lt; 50 ug/m^3 -->
     <g transform="translate(106.69 136.94175)scale(0.144 -0.144)">
      <use xlink:href="#Helvetica-3c"/>
      <use x="58.3984375" xlink:href="#Helvetica-20"/>
      <use x="86.181640625" xlink:href="#Helvetica-35"/>
      <use x="141.796875" xlink:href="#Helvetica-30"/>
      <use x="197.412109375" xlink:href="#Helvetica-20"/>
      <use x="225.1953125" xlink:href="#Helvetica-75"/>
      <use x="280.810546875" xlink:href="#Helvetica-67"/>
      <use x="336.42578125" xlink:href="#Helvetica-2f"/>
      <use x="364.208984375" xlink:href="#Helvetica-6d"/>
      <use x="447.509765625" xlink:href="#Helvetica-5e"/>
      <use x="494.43359375" xlink:href="#Helvetica-33"/>
     </g>
    </g>
   </g>
  </g>
  <g id="axes_2">
   <g id="patch_5">
    <path d="M 338.24875 384.130625 
L 556.4025 384.130625 
L 556.4025 51.84 
L 338.24875 51.84 
z
" style="fill:#ffffff;"/>
   </g>
   <g id="line2d_25">
    <path clip-path="url(#pa98e45137a)" d="M 338.24875 330.892835 
L 349.156438 321.84764 
L 360.064125 312.741399 
L 370.971813 302.77271 
L 381.8795 292.634837 
L 392.787187 281.300627 
L 403.694875 270.906394 
L 414.602562 259.653338 
L 425.51025 245.95708 
L 436.417937 231.470967 
L 447.325625 215.536864 
L 458.233313 200.278357 
L 469.141 183.505829 
L 480.048688 169.510638 
L 490.956375 154.501386 
L 501.864062 136.704234 
L 512.77175 121.967148 
L 523.679437 107.782572 
L 534.587125 95.20485 
L 545.494812 83.790099 
L 556.4025 72.358475 
" style="fill:none;opacity:0.85;stroke:#8a6464;stroke-linecap:square;stroke-width:1.5;"/>
   </g>
   <g id="line2d_26">
    <path clip-path="url(#pa98e45137a)" d="M 338.24875 336.710949 
L 349.156438 329.536735 
L 360.064125 321.286133 
L 370.971813 312.890203 
L 381.8795 304.65076 
L 392.787187 295.547774 
L 403.694875 284.923717 
L 414.602562 274.061445 
L 425.51025 261.872868 
L 436.417937 248.708761 
L 447.325625 235.889004 
L 458.233313 222.885147 
L 469.141 208.235152 
L 480.048688 193.487653 
L 490.956375 177.891461 
L 501.864062 163.29037 
L 512.77175 150.428339 
L 523.679437 136.674083 
L 534.587125 123.748902 
L 545.494812 110.889956 
L 556.4025 99.210458 
" style="fill:none;opacity:0.85;stroke:#af6464;stroke-linecap:square;stroke-width:1.5;"/>
   </g>
   <g id="line2d_27">
    <path clip-path="url(#pa98e45137a)" d="M 338.24875 332.871058 
L 349.156438 323.880451 
L 360.064125 315.604768 
L 370.971813 307.205701 
L 381.8795 298.071881 
L 392.787187 286.701933 
L 403.694875 276.336608 
L 414.602562 265.025563 
L 425.51025 252.567599 
L 436.417937 240.312376 
L 447.325625 226.729821 
L 458.233313 212.320386 
L 469.141 198.341739 
L 480.048688 183.558534 
L 490.956375 168.271968 
L 501.864062 152.092097 
L 512.77175 139.487288 
L 523.679437 126.437038 
L 534.587125 112.418054 
L 545.494812 100.653625 
L 556.4025 90.00971 
" style="fill:none;opacity:0.85;stroke:#647164;stroke-linecap:square;stroke-width:1.5;"/>
   </g>
   <g id="line2d_28">
    <path clip-path="url(#pa98e45137a)" d="M 338.24875 335.427729 
L 349.156438 327.999493 
L 360.064125 319.403931 
L 370.971813 310.390765 
L 381.8795 300.963298 
L 392.787187 291.972982 
L 403.694875 281.128796 
L 414.602562 268.948884 
L 425.51025 256.63934 
L 436.417937 243.608208 
L 447.325625 230.541771 
L 458.233313 215.824031 
L 469.141 202.10031 
L 480.048688 187.605556 
L 490.956375 172.647362 
L 501.864062 157.506938 
L 512.77175 143.212496 
L 523.679437 127.862762 
L 534.587125 115.437998 
L 545.494812 103.157372 
L 556.4025 91.266603 
" style="fill:none;opacity:0.85;stroke:#649664;stroke-linecap:square;stroke-width:1.5;"/>
   </g>
   <g id="patch_6">
    <path d="M 338.24875 384.130625 
L 338.24875 51.84 
" style="fill:none;stroke:#000000;stroke-linecap:square;stroke-linejoin:miter;"/>
   </g>
   <g id="patch_7">
    <path d="M 338.24875 384.130625 
L 556.4025 384.130625 
" style="fill:none;stroke:#000000;stroke-linecap:square;stroke-linejoin:miter;"/>
   </g>
   <g id="matplotlib.axis_3">
    <g id="xtick_6">
     <g id="line2d_29">
      <g>
       <use style="stroke:#000000;stroke-width:0.5;" x="338.24875" xlink:href="#mb96ba1059e" y="384.130625"/>
      </g>
     </g>
     <g id="text_19">
      <!-- 60 -->
      <g transform="translate(331.575625 400.73875)scale(0.12 -0.12)">
       <use xlink:href="#Helvetica-36"/>
       <use x="55.615234375" xlink:href="#Helvetica-30"/>
      </g>
     </g>
    </g>
    <g id="xtick_7">
     <g id="line2d_30">
      <g>
       <use style="stroke:#000000;stroke-width:0.5;" x="392.7871875" xlink:href="#mb96ba1059e" y="384.130625"/>
      </g>
     </g>
     <g id="text_20">
      <!-- 65 -->
      <g transform="translate(386.1140625 400.73875)scale(0.12 -0.12)">
       <use xlink:href="#Helvetica-36"/>
       <use x="55.615234375" xlink:href="#Helvetica-35"/>
      </g>
     </g>
    </g>
    <g id="xtick_8">
     <g id="line2d_31">
      <g>
       <use style="stroke:#000000;stroke-width:0.5;" x="447.325625" xlink:href="#mb96ba1059e" y="384.130625"/>
      </g>
     </g>
     <g id="text_21">
      <!-- 70 -->
      <g transform="translate(440.6525 400.73875)scale(0.12 -0.12)">
       <use xlink:href="#Helvetica-37"/>
       <use x="55.615234375" xlink:href="#Helvetica-30"/>
      </g>
     </g>
    </g>
    <g id="xtick_9">
     <g id="line2d_32">
      <g>
       <use style="stroke:#000000;stroke-width:0.5;" x="501.8640625" xlink:href="#mb96ba1059e" y="384.130625"/>
      </g>
     </g>
     <g id="text_22">
      <!-- 75 -->
      <g transform="translate(495.1909375 400.73875)scale(0.12 -0.12)">
       <use xlink:href="#Helvetica-37"/>
       <use x="55.615234375" xlink:href="#Helvetica-35"/>
      </g>
     </g>
    </g>
    <g id="xtick_10">
     <g id="line2d_33">
      <g>
       <use style="stroke:#000000;stroke-width:0.5;" x="556.4025" xlink:href="#mb96ba1059e" y="384.130625"/>
      </g>
     </g>
     <g id="text_23">
      <!-- 80 -->
      <g transform="translate(549.729375 400.73875)scale(0.12 -0.12)">
       <use xlink:href="#Helvetica-38"/>
       <use x="55.615234375" xlink:href="#Helvetica-30"/>
      </g>
     </g>
    </g>
   </g>
   <g id="matplotlib.axis_4">
    <g id="ytick_8">
     <g id="line2d_34">
      <g>
       <use style="stroke:#000000;stroke-width:0.5;" x="338.24875" xlink:href="#md3b454de25" y="384.130625"/>
      </g>
     </g>
     <g id="text_24">
      <!-- 0.00 -->
      <g transform="translate(306.895625 387.1840625)scale(0.12 -0.12)">
       <use xlink:href="#Helvetica-30"/>
       <use x="55.615234375" xlink:href="#Helvetica-2e"/>
       <use x="83.3984375" xlink:href="#Helvetica-30"/>
       <use x="139.013671875" xlink:href="#Helvetica-30"/>
      </g>
     </g>
    </g>
    <g id="ytick_9">
     <g id="line2d_35">
      <g>
       <use style="stroke:#000000;stroke-width:0.5;" x="338.24875" xlink:href="#md3b454de25" y="328.748854167"/>
      </g>
     </g>
     <g id="text_25">
      <!-- 0.01 -->
      <g transform="translate(306.895625 331.802291667)scale(0.12 -0.12)">
       <use xlink:href="#Helvetica-30"/>
       <use x="55.615234375" xlink:href="#Helvetica-2e"/>
       <use x="83.3984375" xlink:href="#Helvetica-30"/>
       <use x="139.013671875" xlink:href="#Helvetica-31"/>
      </g>
     </g>
    </g>
    <g id="ytick_10">
     <g id="line2d_36">
      <g>
       <use style="stroke:#000000;stroke-width:0.5;" x="338.24875" xlink:href="#md3b454de25" y="273.367083333"/>
      </g>
     </g>
     <g id="text_26">
      <!-- 0.02 -->
      <g transform="translate(306.895625 276.420520833)scale(0.12 -0.12)">
       <use xlink:href="#Helvetica-30"/>
       <use x="55.615234375" xlink:href="#Helvetica-2e"/>
       <use x="83.3984375" xlink:href="#Helvetica-30"/>
       <use x="139.013671875" xlink:href="#Helvetica-32"/>
      </g>
     </g>
    </g>
    <g id="ytick_11">
     <g id="line2d_37">
      <g>
       <use style="stroke:#000000;stroke-width:0.5;" x="338.24875" xlink:href="#md3b454de25" y="217.9853125"/>
      </g>
     </g>
     <g id="text_27">
      <!-- 0.03 -->
      <g transform="translate(306.895625 221.03875)scale(0.12 -0.12)">
       <use xlink:href="#Helvetica-30"/>
       <use x="55.615234375" xlink:href="#Helvetica-2e"/>
       <use x="83.3984375" xlink:href="#Helvetica-30"/>
       <use x="139.013671875" xlink:href="#Helvetica-33"/>
      </g>
     </g>
    </g>
    <g id="ytick_12">
     <g id="line2d_38">
      <g>
       <use style="stroke:#000000;stroke-width:0.5;" x="338.24875" xlink:href="#md3b454de25" y="162.603541667"/>
      </g>
     </g>
     <g id="text_28">
      <!-- 0.04 -->
      <g transform="translate(306.895625 165.656979167)scale(0.12 -0.12)">
       <use xlink:href="#Helvetica-30"/>
       <use x="55.615234375" xlink:href="#Helvetica-2e"/>
       <use x="83.3984375" xlink:href="#Helvetica-30"/>
       <use x="139.013671875" xlink:href="#Helvetica-34"/>
      </g>
     </g>
    </g>
    <g id="ytick_13">
     <g id="line2d_39">
      <g>
       <use style="stroke:#000000;stroke-width:0.5;" x="338.24875" xlink:href="#md3b454de25" y="107.221770833"/>
      </g>
     </g>
     <g id="text_29">
      <!-- 0.05 -->
      <g transform="translate(306.895625 110.275208333)scale(0.12 -0.12)">
       <use xlink:href="#Helvetica-30"/>
       <use x="55.615234375" xlink:href="#Helvetica-2e"/>
       <use x="83.3984375" xlink:href="#Helvetica-30"/>
       <use x="139.013671875" xlink:href="#Helvetica-35"/>
      </g>
     </g>
    </g>
    <g id="ytick_14">
     <g id="line2d_40">
      <g>
       <use style="stroke:#000000;stroke-width:0.5;" x="338.24875" xlink:href="#md3b454de25" y="51.84"/>
      </g>
     </g>
     <g id="text_30">
      <!-- 0.06 -->
      <g transform="translate(306.895625 54.8934375)scale(0.12 -0.12)">
       <use xlink:href="#Helvetica-30"/>
       <use x="55.615234375" xlink:href="#Helvetica-2e"/>
       <use x="83.3984375" xlink:href="#Helvetica-30"/>
       <use x="139.013671875" xlink:href="#Helvetica-36"/>
      </g>
     </g>
    </g>
    <g id="text_31">
     <!-- Lung cancer -->
     <defs>
      <path d="M 6.453125 52.296875 
L 14.796875 52.296875 
L 14.796875 44.875 
Q 18.5 49.46875 22.65625 51.46875 
Q 26.8125 53.46875 31.890625 53.46875 
Q 43.015625 53.46875 46.921875 45.703125 
Q 49.078125 41.453125 49.078125 33.546875 
L 49.078125 0 
L 40.140625 0 
L 40.140625 32.953125 
Q 40.140625 37.75 38.71875 40.671875 
Q 36.375 45.5625 30.21875 45.5625 
Q 27.09375 45.5625 25.09375 44.921875 
Q 21.484375 43.84375 18.75 40.625 
Q 16.546875 38.03125 15.890625 35.265625 
Q 15.234375 32.515625 15.234375 27.390625 
L 15.234375 0 
L 6.453125 0 
z
M 27.09375 53.5625 
z
" id="Helvetica-6e"/>
      <path d="M 7.625 71.734375 
L 17.328125 71.734375 
L 17.328125 8.546875 
L 53.65625 8.546875 
L 53.65625 0 
L 7.625 0 
z
" id="Helvetica-4c"/>
     </defs>
     <g transform="translate(299.240625 251.0059375)rotate(-90.0)scale(0.12 -0.12)">
      <use xlink:href="#Helvetica-4c"/>
      <use x="55.615234375" xlink:href="#Helvetica-75"/>
      <use x="111.23046875" xlink:href="#Helvetica-6e"/>
      <use x="166.845703125" xlink:href="#Helvetica-67"/>
      <use x="222.4609375" xlink:href="#Helvetica-20"/>
      <use x="250.244140625" xlink:href="#Helvetica-63"/>
      <use x="300.244140625" xlink:href="#Helvetica-61"/>
      <use x="355.859375" xlink:href="#Helvetica-6e"/>
      <use x="411.474609375" xlink:href="#Helvetica-63"/>
      <use x="461.474609375" xlink:href="#Helvetica-65"/>
      <use x="517.08984375" xlink:href="#Helvetica-72"/>
     </g>
    </g>
   </g>
  </g>
  <g id="text_32">
   <!-- Cumulative incidence: Overall -->
   <defs>
    <path d="M 6.453125 52.046875 
L 15.375 52.046875 
L 15.375 0 
L 6.453125 0 
z
M 6.453125 71.734375 
L 15.375 71.734375 
L 15.375 61.765625 
L 6.453125 61.765625 
z
" id="Helvetica-69"/>
    <path d="M 37.84375 73.6875 
Q 51.46875 73.6875 58.984375 66.5 
Q 66.5 59.328125 67.328125 50.203125 
L 57.859375 50.203125 
Q 56.25 57.125 51.4375 61.171875 
Q 46.625 65.234375 37.9375 65.234375 
Q 27.34375 65.234375 20.828125 57.78125 
Q 14.3125 50.34375 14.3125 34.96875 
Q 14.3125 22.359375 20.1875 14.515625 
Q 26.078125 6.6875 37.75 6.6875 
Q 48.484375 6.6875 54.109375 14.9375 
Q 57.078125 19.28125 58.546875 26.375 
L 68.015625 26.375 
Q 66.75 15.046875 59.625 7.375 
Q 51.078125 -1.859375 36.578125 -1.859375 
Q 24.078125 -1.859375 15.578125 5.71875 
Q 4.390625 15.71875 4.390625 36.625 
Q 4.390625 52.484375 12.796875 62.640625 
Q 21.875 73.6875 37.84375 73.6875 
z
M 35.890625 73.6875 
z
" id="Helvetica-43"/>
    <path d="M 38.578125 73.6875 
Q 57.5625 73.6875 66.703125 61.46875 
Q 73.828125 51.953125 73.828125 37.109375 
Q 73.828125 21.046875 65.671875 10.40625 
Q 56.109375 -2.09375 38.375 -2.09375 
Q 21.828125 -2.09375 12.359375 8.84375 
Q 3.90625 19.390625 3.90625 35.5 
Q 3.90625 50.046875 11.140625 60.40625 
Q 20.40625 73.6875 38.578125 73.6875 
z
M 39.546875 6.59375 
Q 52.390625 6.59375 58.125 15.796875 
Q 63.875 25 63.875 36.96875 
Q 63.875 49.609375 57.25 57.328125 
Q 50.640625 65.046875 39.15625 65.046875 
Q 28.03125 65.046875 21 57.390625 
Q 13.96875 49.75 13.96875 34.859375 
Q 13.96875 22.953125 20 14.765625 
Q 26.03125 6.59375 39.546875 6.59375 
z
M 38.875 73.6875 
z
" id="Helvetica-4f"/>
    <path d="M 11.078125 51.609375 
L 21.296875 51.609375 
L 21.296875 40.96875 
L 11.078125 40.96875 
z
M 11.078125 10.640625 
L 21.296875 10.640625 
L 21.296875 0 
L 11.078125 0 
z
" id="Helvetica-3a"/>
   </defs>
   <g transform="translate(182.18125 20.1175)scale(0.16 -0.16)">
    <use xlink:href="#Helvetica-43"/>
    <use x="72.216796875" xlink:href="#Helvetica-75"/>
    <use x="127.83203125" xlink:href="#Helvetica-6d"/>
    <use x="211.1328125" xlink:href="#Helvetica-75"/>
    <use x="266.748046875" xlink:href="#Helvetica-6c"/>
    <use x="288.96484375" xlink:href="#Helvetica-61"/>
    <use x="344.580078125" xlink:href="#Helvetica-74"/>
    <use x="372.36328125" xlink:href="#Helvetica-69"/>
    <use x="394.580078125" xlink:href="#Helvetica-76"/>
    <use x="444.580078125" xlink:href="#Helvetica-65"/>
    <use x="500.1953125" xlink:href="#Helvetica-20"/>
    <use x="527.978515625" xlink:href="#Helvetica-69"/>
    <use x="550.1953125" xlink:href="#Helvetica-6e"/>
    <use x="605.810546875" xlink:href="#Helvetica-63"/>
    <use x="655.810546875" xlink:href="#Helvetica-69"/>
    <use x="678.02734375" xlink:href="#Helvetica-64"/>
    <use x="733.642578125" xlink:href="#Helvetica-65"/>
    <use x="789.2578125" xlink:href="#Helvetica-6e"/>
    <use x="844.873046875" xlink:href="#Helvetica-63"/>
    <use x="894.873046875" xlink:href="#Helvetica-65"/>
    <use x="950.48828125" xlink:href="#Helvetica-3a"/>
    <use x="978.271484375" xlink:href="#Helvetica-20"/>
    <use x="1006.0546875" xlink:href="#Helvetica-4f"/>
    <use x="1083.837890625" xlink:href="#Helvetica-76"/>
    <use x="1133.837890625" xlink:href="#Helvetica-65"/>
    <use x="1189.453125" xlink:href="#Helvetica-72"/>
    <use x="1222.75390625" xlink:href="#Helvetica-61"/>
    <use x="1278.369140625" xlink:href="#Helvetica-6c"/>
    <use x="1300.5859375" xlink:href="#Helvetica-6c"/>
   </g>
   <!--  -->
   <g transform="translate(288.0 37.2255)scale(0.16 -0.16)"/>
  </g>
 </g>
 <defs>
  <clipPath id="pcdfed54977">
   <rect height="332.290625" width="218.15375" x="53.41" y="51.84"/>
  </clipPath>
  <clipPath id="pa98e45137a">
   <rect height="332.290625" width="218.15375" x="338.24875" y="51.84"/>
  </clipPath>
 </defs>
</svg>
